<mxfile host="app.diagrams.net" agent="Mozilla/5.0 (Macintosh; Intel Mac OS X 10_15_7) AppleWebKit/537.36 (KHTML, like Gecko) Chrome/131.0.0.0 Safari/537.36" version="25.0.1">
  <diagram name="Page-1" id="HMMPTgYJ4mBroc7grvuf">
    <mxGraphModel dx="1122" dy="684" grid="1" gridSize="10" guides="1" tooltips="1" connect="1" arrows="1" fold="1" page="1" pageScale="1" pageWidth="827" pageHeight="1169" math="0" shadow="0">
      <root>
        <mxCell id="0" />
        <mxCell id="1" parent="0" />
        <mxCell id="5GK5KS7B8_MFNQxC7DD5-3" value="" style="rounded=1;whiteSpace=wrap;html=1;" vertex="1" parent="1">
          <mxGeometry x="320" y="200" width="150" height="210" as="geometry" />
        </mxCell>
        <mxCell id="5GK5KS7B8_MFNQxC7DD5-1" value="" style="fontColor=#0066CC;verticalAlign=top;verticalLabelPosition=bottom;labelPosition=center;align=center;html=1;outlineConnect=0;fillColor=#CCCCCC;strokeColor=#6881B3;gradientColor=none;gradientDirection=north;strokeWidth=2;shape=mxgraph.networks.laptop;" vertex="1" parent="1">
          <mxGeometry x="365" y="330" width="60" height="40" as="geometry" />
        </mxCell>
        <mxCell id="5GK5KS7B8_MFNQxC7DD5-2" value="DNS Server" style="fontColor=#0066CC;verticalAlign=top;verticalLabelPosition=bottom;labelPosition=center;align=center;html=1;outlineConnect=0;fillColor=#CCCCCC;strokeColor=#6881B3;gradientColor=none;gradientDirection=north;strokeWidth=2;shape=mxgraph.networks.server;fontFamily=Courier New;spacingTop=-83;fontStyle=1" vertex="1" parent="1">
          <mxGeometry x="365" y="230" width="60" height="60" as="geometry" />
        </mxCell>
        <mxCell id="5GK5KS7B8_MFNQxC7DD5-6" value="Root DNS Server" style="fontColor=#0066CC;verticalAlign=top;verticalLabelPosition=bottom;labelPosition=center;align=center;html=1;outlineConnect=0;fillColor=#CCCCCC;strokeColor=#6881B3;gradientColor=none;gradientDirection=north;strokeWidth=2;shape=mxgraph.networks.mainframe;spacingTop=-125;fontFamily=Courier New;fontStyle=1" vertex="1" parent="1">
          <mxGeometry x="40" y="80" width="80" height="100" as="geometry" />
        </mxCell>
        <mxCell id="5GK5KS7B8_MFNQxC7DD5-9" value="TLD Server&lt;br&gt;&lt;br&gt;&lt;div&gt;.com .id .org .net .gov&lt;/div&gt;" style="rounded=1;whiteSpace=wrap;html=1;fontFamily=Courier New;verticalAlign=top;" vertex="1" parent="1">
          <mxGeometry x="20" y="240" width="190" height="60" as="geometry" />
        </mxCell>
        <mxCell id="5GK5KS7B8_MFNQxC7DD5-15" value="" style="rounded=1;whiteSpace=wrap;html=1;" vertex="1" parent="1">
          <mxGeometry x="550" y="200" width="150" height="210" as="geometry" />
        </mxCell>
        <mxCell id="5GK5KS7B8_MFNQxC7DD5-18" value="DNS Server" style="fontColor=#0066CC;verticalAlign=top;verticalLabelPosition=bottom;labelPosition=center;align=center;html=1;outlineConnect=0;fillColor=#CCCCCC;strokeColor=#6881B3;gradientColor=none;gradientDirection=north;strokeWidth=2;shape=mxgraph.networks.server;spacingTop=-83;fontFamily=Courier New;fontStyle=1" vertex="1" parent="1">
          <mxGeometry x="595" y="230" width="60" height="60" as="geometry" />
        </mxCell>
        <mxCell id="5GK5KS7B8_MFNQxC7DD5-20" value="www.example.com" style="fontColor=#0066CC;verticalAlign=top;verticalLabelPosition=bottom;labelPosition=center;align=center;html=1;outlineConnect=0;fillColor=#CCCCCC;strokeColor=#6881B3;gradientColor=none;gradientDirection=north;strokeWidth=2;shape=mxgraph.networks.virtual_server;fontFamily=Courier New;spacingTop=-80;fontStyle=1" vertex="1" parent="1">
          <mxGeometry x="597.5" y="330" width="55" height="60" as="geometry" />
        </mxCell>
        <mxCell id="5GK5KS7B8_MFNQxC7DD5-27" value="1" style="curved=1;endArrow=classic;html=1;rounded=0;exitX=0.15;exitY=0.5;exitDx=0;exitDy=0;exitPerimeter=0;entryX=0;entryY=1;entryDx=0;entryDy=0;entryPerimeter=0;" edge="1" parent="1" source="5GK5KS7B8_MFNQxC7DD5-1" target="5GK5KS7B8_MFNQxC7DD5-2">
          <mxGeometry x="-0.1058" y="-8" width="50" height="50" relative="1" as="geometry">
            <mxPoint x="250" y="450" as="sourcePoint" />
            <mxPoint x="230" y="380" as="targetPoint" />
            <Array as="points">
              <mxPoint x="350" y="320" />
            </Array>
            <mxPoint as="offset" />
          </mxGeometry>
        </mxCell>
        <mxCell id="5GK5KS7B8_MFNQxC7DD5-28" value="&amp;nbsp;2&amp;nbsp;" style="curved=1;endArrow=classic;html=1;rounded=0;exitX=0;exitY=0.15;exitDx=0;exitDy=0;exitPerimeter=0;entryX=1;entryY=0.5;entryDx=0;entryDy=0;entryPerimeter=0;" edge="1" parent="1" source="5GK5KS7B8_MFNQxC7DD5-2" target="5GK5KS7B8_MFNQxC7DD5-6">
          <mxGeometry x="0.0777" y="15" width="50" height="50" relative="1" as="geometry">
            <mxPoint x="284" y="180" as="sourcePoint" />
            <mxPoint x="275" y="90" as="targetPoint" />
            <Array as="points">
              <mxPoint x="290" y="150" />
            </Array>
            <mxPoint as="offset" />
          </mxGeometry>
        </mxCell>
        <mxCell id="5GK5KS7B8_MFNQxC7DD5-29" value="&amp;nbsp;3&amp;nbsp;" style="curved=1;endArrow=classic;html=1;rounded=0;exitX=1;exitY=0.5;exitDx=0;exitDy=0;exitPerimeter=0;entryX=0;entryY=0.15;entryDx=0;entryDy=0;entryPerimeter=0;" edge="1" parent="1" source="5GK5KS7B8_MFNQxC7DD5-6" target="5GK5KS7B8_MFNQxC7DD5-2">
          <mxGeometry x="0.0683" y="22" width="50" height="50" relative="1" as="geometry">
            <mxPoint x="130" y="110" as="sourcePoint" />
            <mxPoint x="375" y="240" as="targetPoint" />
            <Array as="points">
              <mxPoint x="210" y="240" />
            </Array>
            <mxPoint as="offset" />
          </mxGeometry>
        </mxCell>
        <mxCell id="5GK5KS7B8_MFNQxC7DD5-30" value="&amp;nbsp;4&amp;nbsp;" style="curved=1;endArrow=classic;html=1;rounded=0;entryX=1;entryY=0.5;entryDx=0;entryDy=0;exitX=0;exitY=0.5;exitDx=0;exitDy=0;exitPerimeter=0;" edge="1" parent="1" source="5GK5KS7B8_MFNQxC7DD5-2" target="5GK5KS7B8_MFNQxC7DD5-9">
          <mxGeometry x="-0.0049" y="9" width="50" height="50" relative="1" as="geometry">
            <mxPoint x="355" y="270.40000000000003" as="sourcePoint" />
            <mxPoint x="90" y="220" as="targetPoint" />
            <Array as="points">
              <mxPoint x="290" y="240" />
            </Array>
            <mxPoint as="offset" />
          </mxGeometry>
        </mxCell>
        <mxCell id="5GK5KS7B8_MFNQxC7DD5-31" value="&amp;nbsp;5&amp;nbsp;" style="curved=1;endArrow=classic;html=1;rounded=0;entryX=0;entryY=0.5;entryDx=0;entryDy=0;exitX=0.999;exitY=0.647;exitDx=0;exitDy=0;exitPerimeter=0;entryPerimeter=0;" edge="1" parent="1" source="5GK5KS7B8_MFNQxC7DD5-9" target="5GK5KS7B8_MFNQxC7DD5-2">
          <mxGeometry x="0.0134" y="10" width="50" height="50" relative="1" as="geometry">
            <mxPoint x="220" y="259.9999999999999" as="sourcePoint" />
            <mxPoint x="375" y="249.9999999999999" as="targetPoint" />
            <Array as="points">
              <mxPoint x="295" y="290" />
            </Array>
            <mxPoint as="offset" />
          </mxGeometry>
        </mxCell>
        <mxCell id="5GK5KS7B8_MFNQxC7DD5-32" value="&amp;nbsp;6&amp;nbsp;" style="curved=1;endArrow=classic;html=1;rounded=0;entryX=0;entryY=0.5;entryDx=0;entryDy=0;exitX=1;exitY=0.5;exitDx=0;exitDy=0;exitPerimeter=0;entryPerimeter=0;" edge="1" parent="1" source="5GK5KS7B8_MFNQxC7DD5-2" target="5GK5KS7B8_MFNQxC7DD5-18">
          <mxGeometry x="0.0907" y="-18" width="50" height="50" relative="1" as="geometry">
            <mxPoint x="434.9999999999998" y="250" as="sourcePoint" />
            <mxPoint x="589.9999999999998" y="260" as="targetPoint" />
            <Array as="points">
              <mxPoint x="510" y="220" />
            </Array>
            <mxPoint as="offset" />
          </mxGeometry>
        </mxCell>
        <mxCell id="5GK5KS7B8_MFNQxC7DD5-34" value="&amp;nbsp;7&amp;nbsp;" style="curved=1;endArrow=classic;html=1;rounded=0;entryX=0;entryY=0.5;entryDx=0;entryDy=0;exitX=1;exitY=0.5;exitDx=0;exitDy=0;exitPerimeter=0;entryPerimeter=0;" edge="1" parent="1">
          <mxGeometry x="0.0907" y="-18" width="50" height="50" relative="1" as="geometry">
            <mxPoint x="595.0000000000002" y="260" as="sourcePoint" />
            <mxPoint x="425.0000000000002" y="260" as="targetPoint" />
            <Array as="points">
              <mxPoint x="510.0000000000002" y="300" />
            </Array>
            <mxPoint as="offset" />
          </mxGeometry>
        </mxCell>
      </root>
    </mxGraphModel>
  </diagram>
</mxfile>
